<?xml version="1.0" encoding="utf-8"?><!-- Uploaded to: SVG Repo, www.svgrepo.com, Generator: SVG Repo Mixer Tools -->
<svg width="800px" height="800px" viewBox="0 0 16 16" fill="none" xmlns="http://www.w3.org/2000/svg">
<path fill-rule="evenodd" clip-rule="evenodd" d="M3 6.99963C1.78555 7.91184 1 9.36418 1 11C1 13.7614 3.23858 16 6 16C8.76142 16 11 13.7614 11 11C11 9.36418 10.2144 7.91184 9 6.99963V0H3V6.99963ZM7 7V2H5V6.99963L7 7Z" fill="#000000"/>
<path d="M11 4H16V6H11V4Z" fill="#000000"/>
<path d="M16 0H13V2H16V0Z" fill="#000000"/>
<path d="M13 8H16V10H13V8Z" fill="#000000"/>
<path d="M16 12H13V14H16V12Z" fill="#000000"/>
</svg>